TITLE ""
FILE "Step1_Track27.mp3" MP3
  TRACK 01 AUDIO
    TITLE "Step1_Track27_01"
    INDEX 01 00:00:00
  TRACK 02 AUDIO
    TITLE "Step1_Track27_02"
    INDEX 01 00:00:24
  TRACK 03 AUDIO
    TITLE "Step1_Track27_03"
    INDEX 01 00:02:03
  TRACK 04 AUDIO
    TITLE "Step1_Track27_04"
    INDEX 01 00:02:48
  TRACK 05 AUDIO
    TITLE "Step1_Track27_05"
    INDEX 01 00:03:48
  TRACK 06 AUDIO
    TITLE "Step1_Track27_06"
    INDEX 01 00:03:56
  TRACK 07 AUDIO
    TITLE "Step1_Track27_07"
    INDEX 01 00:05:58
  TRACK 08 AUDIO
    TITLE "Step1_Track27_08"
    INDEX 01 00:06:05
  TRACK 09 AUDIO
    TITLE "Step1_Track27_09"
    INDEX 01 00:07:03
  TRACK 10 AUDIO
    TITLE "Step1_Track27_10"
    INDEX 01 00:07:12
  TRACK 11 AUDIO
    TITLE "Step1_Track27_11"
    INDEX 01 00:09:25
  TRACK 12 AUDIO
    TITLE "Step1_Track27_12"
    INDEX 01 00:09:52
  TRACK 13 AUDIO
    TITLE "Step1_Track27_13"
    INDEX 01 00:10:58
  TRACK 14 AUDIO
    TITLE "Step1_Track27_14"
    INDEX 01 00:10:62
  TRACK 15 AUDIO
    TITLE "Step1_Track27_15"
    INDEX 01 00:13:27
  TRACK 16 AUDIO
    TITLE "Step1_Track27_16"
    INDEX 01 00:13:64
  TRACK 17 AUDIO
    TITLE "Step1_Track27_17"
    INDEX 01 00:14:67
  TRACK 18 AUDIO
    TITLE "Step1_Track27_18"
    INDEX 01 00:14:73
  TRACK 19 AUDIO
    TITLE "Step1_Track27_19"
    INDEX 01 00:16:66
  TRACK 20 AUDIO
    TITLE "Step1_Track27_20"
    INDEX 01 00:17:24
  TRACK 21 AUDIO
    TITLE "Step1_Track27_21"
    INDEX 01 00:18:28
  TRACK 22 AUDIO
    TITLE "Step1_Track27_22"
    INDEX 01 00:18:30
  TRACK 23 AUDIO
    TITLE "Step1_Track27_23"
    INDEX 01 00:20:46
  TRACK 24 AUDIO
    TITLE "Step1_Track27_24"
    INDEX 01 00:20:66
  TRACK 25 AUDIO
    TITLE "Step1_Track27_25"
    INDEX 01 00:22:02
  TRACK 26 AUDIO
    TITLE "Step1_Track27_26"
    INDEX 01 00:22:08
  TRACK 27 AUDIO
    TITLE "Step1_Track27_27"
    INDEX 01 00:24:60
  TRACK 28 AUDIO
    TITLE "Step1_Track27_28"
    INDEX 01 00:25:04
  TRACK 29 AUDIO
    TITLE "Step1_Track27_29"
    INDEX 01 00:26:12
  TRACK 30 AUDIO
    TITLE "Step1_Track27_30"
    INDEX 01 00:26:14
  TRACK 31 AUDIO
    TITLE "Step1_Track27_31"
    INDEX 01 00:28:22
  TRACK 32 AUDIO
    TITLE "Step1_Track27_32"
    INDEX 01 00:28:52
  TRACK 33 AUDIO
    TITLE "Step1_Track27_33"
    INDEX 01 00:29:43
  TRACK 34 AUDIO
    TITLE "Step1_Track27_34"
    INDEX 01 00:29:55
  TRACK 35 AUDIO
    TITLE "Step1_Track27_35"
    INDEX 01 00:31:50
  TRACK 36 AUDIO
    TITLE "Step1_Track27_36"
    INDEX 01 00:32:02
  TRACK 37 AUDIO
    TITLE "Step1_Track27_37"
    INDEX 01 00:33:10
  TRACK 38 AUDIO
    TITLE "Step1_Track27_38"
    INDEX 01 00:33:22
  TRACK 39 AUDIO
    TITLE "Step1_Track27_39"
    INDEX 01 00:35:38
  TRACK 40 AUDIO
    TITLE "Step1_Track27_40"
    INDEX 01 00:36:00
  TRACK 41 AUDIO
    TITLE "Step1_Track27_41"
    INDEX 01 00:36:73
  TRACK 42 AUDIO
    TITLE "Step1_Track27_42"
    INDEX 01 00:37:27
  TRACK 43 AUDIO
    TITLE "Step1_Track27_43"
    INDEX 01 00:40:16
